<svg xmlns="http://www.w3.org/2000/svg" viewBox="0 0 220 320" role="img" aria-label="Alternate NPC">
  <path d="M110 32c28 0 49 22 49 50s-21 50-49 50-49-22-49-50 21-50 49-50Z" fill="#d8a278"/>
  <path d="M68 78c2-36 28-58 62-52 28 5 45 28 42 58-18-13-40-16-64-8-14 5-27 6-40 2Z" fill="#451a03"/>
  <path d="M58 136h98l32 150H34Z" fill="#1d4ed8"/>
  <path d="M58 146h118l-16 48H68Z" fill="#0f766e"/>
  <path d="M76 218h34l-8 72H66Z" fill="#111827"/>
  <path d="M126 218h36l10 72h-40Z" fill="#1f2937"/>
  <path d="M50 288h136v18H50Z" fill="#0f172a"/>
  <path d="M62 154 34 216" stroke="#d8a278" stroke-width="18" stroke-linecap="round"/>
  <path d="M164 154 194 212" stroke="#d8a278" stroke-width="18" stroke-linecap="round"/>
  <path d="M151 126c26 20 40 54 42 92" stroke="#164e63" stroke-width="18" stroke-linecap="round" fill="none"/>
</svg>
