<svg xmlns="http://www.w3.org/2000/svg" viewBox="0 0 220 320" role="img" aria-label="NPC">
  <path d="M112 34c27 0 48 22 48 50s-21 50-48 50-48-22-48-50 21-50 48-50Z" fill="#e8b086"/>
  <path d="M72 82c-4-32 20-60 55-58 27 2 48 24 45 57-20-16-40-20-62-12-13 5-25 8-38 13Z" fill="#1c1917"/>
  <path d="M62 136h92l34 150H42Z" fill="#7f1d1d"/>
  <path d="M58 150h116l-6 42H64Z" fill="#78350f"/>
  <path d="M78 218h34l-10 72H66Z" fill="#1f2937"/>
  <path d="M128 218h34l8 72h-38Z" fill="#292524"/>
  <path d="M54 288h128v18H54Z" fill="#111827"/>
  <path d="M64 154 36 214" stroke="#e8b086" stroke-width="18" stroke-linecap="round"/>
  <path d="M164 154 194 206" stroke="#e8b086" stroke-width="18" stroke-linecap="round"/>
  <path d="M152 126c30 22 40 58 38 98" stroke="#57534e" stroke-width="18" stroke-linecap="round" fill="none"/>
</svg>
